<?xml version="1.0" encoding="UTF-8" standalone="no"?>
<!-- Generator: Adobe Illustrator 23.0.3, SVG Export Plug-In . SVG Version: 6.00 Build 0)  -->

<svg
   version="1.1"
   id="Layer_1"
   x="0px"
   y="0px"
   viewBox="0 0 53 52"
   xml:space="preserve"
   width="53"
   height="52"
   sodipodi:docname="open_neural_network_exchange_logo.svg"
   inkscape:version="1.2.2 (b0a8486541, 2022-12-01)"
   xmlns:inkscape="http://www.inkscape.org/namespaces/inkscape"
   xmlns:sodipodi="http://sodipodi.sourceforge.net/DTD/sodipodi-0.dtd"
   xmlns="http://www.w3.org/2000/svg"
   xmlns:svg="http://www.w3.org/2000/svg"><sodipodi:namedview
   id="namedview35"
   pagecolor="#ffffff"
   bordercolor="#000000"
   borderopacity="0.25"
   inkscape:showpageshadow="2"
   inkscape:pageopacity="0.0"
   inkscape:pagecheckerboard="0"
   inkscape:deskcolor="#d1d1d1"
   showgrid="false"
   inkscape:zoom="3.1418269"
   inkscape:cx="106.62586"
   inkscape:cy="44.082632"
   inkscape:window-width="1366"
   inkscape:window-height="744"
   inkscape:window-x="0"
   inkscape:window-y="132"
   inkscape:window-maximized="1"
   inkscape:current-layer="Layer_1" /><defs
   id="defs67" />
<style
   type="text/css"
   id="style2">
	.st0{fill:#FFFFFF;}
	.st1{fill:#545554;}
	.st2{fill:#3E3E3D;}
	.st3{fill:#4D4C4D;}
	.st4{fill:#5D5D5D;}
	.st5{fill:#717272;}
</style>
<g
   id="g32"
   transform="translate(-0.2,-0.1)">
	<g
   id="g14">
		<path
   class="st0"
   d="m 50.8,24.2 c -0.1,0 -0.2,0 -0.3,0 L 41.6,8 c 0.2,-0.3 0.2,-0.6 0.2,-1 0,-1.2 -1,-2.1 -2.1,-2.1 -0.6,0 -1.2,0.3 -1.5,0.7 L 20.6,2 c -0.1,-1.1 -1,-1.9 -2.1,-1.9 -1.2,0 -2.1,1 -2.1,2.1 0,0.4 0.1,0.7 0.2,1 L 2.9,22.9 c -0.2,0 -0.4,-0.1 -0.6,-0.1 -1.2,0 -2.1,1 -2.1,2.1 0,1.2 1,2.1 2.1,2.1 h 0.1 l 7.4,18.3 c -0.1,0.3 -0.2,0.6 -0.2,0.9 0,1.2 1,2.1 2.1,2.1 0.6,0 1.2,-0.3 1.5,-0.7 l 22.2,2.2 c 0.2,0.9 1.1,1.6 2.1,1.6 1.2,0 2.1,-1 2.1,-2.1 0,-0.5 -0.2,-1 -0.5,-1.4 L 50.3,28.4 c 0.1,0 0.2,0 0.4,0 1.2,0 2.1,-1 2.1,-2.1 0.1,-1.1 -0.8,-2.1 -2,-2.1 z M 38,8.3 c 0.3,0.3 0.6,0.6 1,0.7 l -3.4,25.4 c -0.2,0 -0.4,0.1 -0.6,0.2 l -18.5,-16 c 0,-0.2 0.1,-0.4 0.1,-0.6 0,-0.1 0,-0.3 0,-0.4 z M 48.7,27 37.3,34.8 C 37.2,34.7 37.1,34.7 37,34.6 L 40.5,9 v 0 l 8.7,16 c -0.3,0.4 -0.5,0.9 -0.5,1.4 -0.1,0.2 0,0.4 0,0.6 z M 14.2,15.9 c -1,0.2 -1.8,1 -1.8,2.1 v 0.1 L 4.8,22.6 16.6,5.7 Z m 0.8,4.2 c 0.3,-0.1 0.6,-0.2 0.8,-0.3 L 34.1,35.7 C 34,35.9 34,36.2 34,36.5 v 0.1 L 13.5,45 c -0.3,-0.4 -0.8,-0.8 -1.3,-0.9 z m 19.5,17.8 c 0.3,0.3 0.7,0.5 1.1,0.6 l 1,8.9 c -0.4,0.2 -0.8,0.6 -1,1 L 14.1,46.3 Z m 2.6,0.5 c 0.7,-0.3 1.2,-1.1 1.2,-1.9 0,-0.2 0,-0.4 -0.1,-0.5 L 48.6,28.9 38.1,47.1 Z M 37.6,6.9 15.9,16.4 C 15.8,16.3 15.7,16.3 15.7,16.2 L 18.5,4.4 h 0.1 c 0.8,0 1.4,-0.4 1.8,-1 z m -33.1,18 c 0,-0.1 0,-0.3 0,-0.4 l 8.6,-5.1 c 0.2,0.2 0.4,0.3 0.6,0.4 l -2.8,24 -7,-17.3 c 0.3,-0.4 0.6,-0.9 0.6,-1.6 z"
   id="path4"
   style="fill:#343433;fill-opacity:1" />
		
		
		
		
	</g>
	<path
   class="st1"
   d="m 40.5,9 8.7,16 c -0.3,0.4 -0.5,0.9 -0.5,1.4 0,0.2 0,0.4 0.1,0.6 L 37.4,34.8 C 37.3,34.7 37.2,34.7 37.1,34.6 L 40.5,9 v 0"
   id="path16"
   style="fill:#dfe0e0;fill-opacity:1" />
	<path
   class="st2"
   d="m 37.1,38.4 c 0.7,-0.3 1.2,-1.1 1.2,-1.9 0,-0.2 0,-0.4 -0.1,-0.5 L 48.6,28.9 38.1,47.1 Z"
   id="path18"
   style="fill:#b3b3b3;fill-opacity:1" />
	<path
   class="st3"
   d="m 34.5,37.9 c 0.3,0.3 0.7,0.5 1.1,0.6 l 1,8.9 c -0.4,0.2 -0.8,0.6 -1,1 L 14.1,46.3 Z"
   id="path20"
   style="fill:#d2d2d2;fill-opacity:1" />
	<path
   class="st4"
   d="m 15,20.1 c 0.3,-0.1 0.6,-0.2 0.8,-0.3 L 34.1,35.7 C 34,35.9 34,36.2 34,36.5 v 0.1 L 13.5,45 c -0.3,-0.4 -0.8,-0.8 -1.3,-0.9 z"
   id="path22"
   style="fill:#f5f6f7;fill-opacity:1" />
	<path
   class="st3"
   d="m 4.5,24.9 c 0,-0.1 0,-0.3 0,-0.4 l 8.6,-5.1 c 0.2,0.2 0.4,0.3 0.6,0.4 l -2.8,24 -7,-17.3 c 0.3,-0.4 0.6,-0.9 0.6,-1.6 z"
   id="path24"
   style="fill:#d9d9d9;fill-opacity:1" />
	<path
   class="st2"
   d="m 14.2,15.9 c -1,0.2 -1.8,1 -1.8,2.1 v 0.1 L 4.8,22.6 16.6,5.7 Z"
   id="path26"
   style="fill:#b3b3b3;fill-opacity:1" />
	<path
   class="st1"
   d="M 37.6,6.9 15.9,16.4 C 15.8,16.3 15.7,16.3 15.7,16.2 L 18.5,4.4 h 0.1 c 0.8,0 1.4,-0.4 1.8,-1 z"
   id="path28"
   style="fill:#d2d2d2;fill-opacity:1" />
	<path
   class="st5"
   d="m 38,8.3 c 0.3,0.3 0.6,0.6 1,0.7 l -3.4,25.4 c -0.2,0 -0.4,0.1 -0.6,0.2 l -18.5,-16 c 0,-0.2 0.1,-0.4 0.1,-0.6 0,-0.1 0,-0.3 0,-0.4 z"
   id="path30"
   style="fill:#ffffff;fill-opacity:1" />
</g>
<g
   id="g34"
   transform="translate(-0.2,-0.1)">
</g>
<g
   id="g36"
   transform="translate(-0.2,-0.1)">
</g>
<g
   id="g38"
   transform="translate(-0.2,-0.1)">
</g>
<g
   id="g40"
   transform="translate(-0.2,-0.1)">
</g>
<g
   id="g42"
   transform="translate(-0.2,-0.1)">
</g>
<g
   id="g44"
   transform="translate(-0.2,-0.1)">
</g>
<g
   id="g46"
   transform="translate(-0.2,-0.1)">
</g>
<g
   id="g48"
   transform="translate(-0.2,-0.1)">
</g>
<g
   id="g50"
   transform="translate(-0.2,-0.1)">
</g>
<g
   id="g52"
   transform="translate(-0.2,-0.1)">
</g>
<g
   id="g54"
   transform="translate(-0.2,-0.1)">
</g>
<g
   id="g56"
   transform="translate(-0.2,-0.1)">
</g>
<g
   id="g58"
   transform="translate(-0.2,-0.1)">
</g>
<g
   id="g60"
   transform="translate(-0.2,-0.1)">
</g>
<g
   id="g62"
   transform="translate(-0.2,-0.1)">
</g>
</svg>
