<?xml version="1.0" encoding="iso-8859-1"?>
<!-- Uploaded to: SVG Repo, www.svgrepo.com, Generator: SVG Repo Mixer Tools -->
<svg fill="#000000" height="800px" width="800px" version="1.1" id="Capa_1" xmlns="http://www.w3.org/2000/svg" xmlns:xlink="http://www.w3.org/1999/xlink" 
	 viewBox="0 0 490 490" xml:space="preserve">
<path d="M395.579,264.864V130.878h-63.987V86.044h-41.926V0h-89.332v86.044h-41.926v44.835H94.42v133.986L52.54,289.68L114.37,490
	L245,432.18L375.63,490l61.83-200.32L395.579,264.864z M220.594,20.261h48.811v65.783h-48.811V20.261z M178.668,106.304h21.666
	h89.332h21.666v24.574H178.668V106.304z M114.681,151.139h260.638v101.72L245,175.64l-130.319,77.219V151.139z M362.98,462.25
	L245,410.03l-117.98,52.22l-50.4-163.28L245,199.19l168.38,99.78L362.98,462.25z"/>
</svg>